# xmcd CD database file
#
# Track frame offsets:
#	150
#	22625
#	41195
#	60600
#	77127
#	89895
#	107785
#	124945
#	138475
#	157367
#	172762
#	198480
#	214455
#	232830
#	253482
#	272282
#	292260
#	307977
#
# Disc length: 4421 seconds
#
# Revision: 0
# Processed by: cddbd v1.5.2PL0 Copyright (c) Steve Scherf et al.
# Submitted via: CDex 1.51
#
DISCID=0f114312
DTITLE=Vince Guaraldi Trio - Vince Guaraldi Trio and A Flower Is A Lovesome Thing
DYEAR=1900
DGENRE=Jazz
TTITLE0=Django
TTITLE1=Fenwyck's Farfel
TTITLE2=Never Never Land
TTITLE3=Chelsea Bridge
TTITLE4=Fascinating Rhythm
TTITLE5=The Lady Is In Love With You
TTITLE6=Sweet And Lovely
TTITLE7=Ossobucco
TTITLE8=Three Coins In The Fountain
TTITLE9=It's De-Lovely
TTITLE10=A Flower Is A Lovesome Thing
TTITLE11=Softly, As in A Morning Sunrise
TTITLE12=Yesterdays
TTITLE13=Like A Mighty Rose (aka Room At The Bottom)
TTITLE14=Looking For A Boy
TTITLE15=Autumn Leaves
TTITLE16=Lonely Girl
TTITLE17=Willow Weep For Me
EXTD=
EXTT0=
EXTT1=
EXTT2=
EXTT3=
EXTT4=
EXTT5=
EXTT6=
EXTT7=
EXTT8=
EXTT9=
EXTT10=
EXTT11=
EXTT12=
EXTT13=
EXTT14=
EXTT15=
EXTT16=
EXTT17=
PLAYORDER=
